<svg width="20" height="21" viewBox="0 0 20 21" fill="none" xmlns="http://www.w3.org/2000/svg">
<path d="M1.0791 10.9321C1.0791 18.0431 6.65462 19.8211 9.44185 19.8211C10.8692 19.8211 12.9364 19.4641 14.7833 18.4311M17.6507 15.8211C18.4751 14.5751 19 12.9731 19 10.9321C19 6.40509 16.0115 3.17209 13.3096 1.31909C12.0889 0.481088 10.5667 1.40109 10.5667 2.83109V3.15409C10.5667 4.59609 9.92783 7.22809 8.1526 8.32309C7.24601 8.88209 6.26563 8.04509 6.156 7.02509L6.06534 6.18709C5.95992 5.21309 4.91418 4.62209 4.09404 5.21609C3.29458 5.79091 2.61831 6.5054 2.10165 7.32109" stroke="#DC1E0F" stroke-width="1.5" stroke-linecap="round"/>
</svg>
